<?xml version="1.0" encoding="utf-8"?>
<!-- Generator: Adobe Illustrator 22.1.0, SVG Export Plug-In . SVG Version: 6.00 Build 0)  -->
<svg version="1.1" id="Layer_1" xmlns="http://www.w3.org/2000/svg" xmlns:xlink="http://www.w3.org/1999/xlink" x="0px" y="0px"
	 viewBox="0 0 1000 350" style="enable-background:new 0 0 1000 350;" xml:space="preserve">
<style type="text/css">
	.st0{fill:#66423B;stroke:#51352B;stroke-width:10;stroke-miterlimit:10;}
	.st1{fill:#845D59;stroke:#492E2E;stroke-width:5;stroke-miterlimit:10;}
	.st2{fill:none;stroke:#EFEFEF;stroke-width:5;stroke-linecap:round;stroke-linejoin:round;stroke-miterlimit:10;}
	.st3{display:none;}
	.st4{display:inline;fill:#7C3131;}
	.st5{display:inline;fill:#4F2121;}
	.st6{display:none;fill:#994B4B;}
	.st7{display:none;fill:#DDDDDD;}
</style>
<g id="Favorite">
</g>
<g>
	<path class="st0" d="M152.4,14.5h-48.3c0,10.8-8.7,19.5-19.5,19.5c-0.7,0-1.5,0-2.2-0.1c-0.8,24.2-20.6,43.5-45,43.5
		c-0.6,0-1.2,0-1.8-0.1c-0.8,10-9.2,17.8-19.4,17.8v195c0,12.6,10.3,22.8,22.8,22.8h113.4c12.6,0,22.8-10.3,22.8-22.8V37.3
		C175.2,24.7,164.9,14.5,152.4,14.5z"/>
	<path class="st1" d="M114.1,91.3h34.1c7.8,0,14.1-6.3,14.1-14.1V43.1c0-7.8-6.3-14.1-14.1-14.1h-34.1c-7.8,0-14.1,6.3-14.1,14.1
		v34.1C100,85,106.3,91.3,114.1,91.3z"/>
	<g>
		<path class="st1" d="M114.1,160.3h34.1c7.8,0,14.1-6.3,14.1-14.1v-34.1c0-7.8-6.3-14.1-14.1-14.1h-34.1c-7.8,0-14.1,6.3-14.1,14.1
			v34.1C100,154,106.3,160.3,114.1,160.3z"/>
		<path class="st1" d="M43.1,160.3h34.1c7.8,0,14.1-6.3,14.1-14.1v-34.1c0-7.8-6.3-14.1-14.1-14.1H43.1c-7.8,0-14.1,6.3-14.1,14.1
			v34.1C29,154,35.3,160.3,43.1,160.3z"/>
	</g>
	<g>
		<path class="st1" d="M114.1,229.4h34.1c7.8,0,14.1-6.3,14.1-14.1v-34.1c0-7.8-6.3-14.1-14.1-14.1h-34.1c-7.8,0-14.1,6.3-14.1,14.1
			v34.1C100,223.1,106.3,229.4,114.1,229.4z"/>
		<path class="st1" d="M43.1,229.4h34.1c7.8,0,14.1-6.3,14.1-14.1v-34.1c0-7.8-6.3-14.1-14.1-14.1H43.1c-7.8,0-14.1,6.3-14.1,14.1
			v34.1C29,223.1,35.3,229.4,43.1,229.4z"/>
	</g>
	<g>
		<path class="st1" d="M114.1,298.4h34.1c7.8,0,14.1-6.3,14.1-14.1v-34.1c0-7.8-6.3-14.1-14.1-14.1h-34.1c-7.8,0-14.1,6.3-14.1,14.1
			v34.1C100,292.1,106.3,298.4,114.1,298.4z"/>
		<path class="st1" d="M43.1,298.4h34.1c7.8,0,14.1-6.3,14.1-14.1v-34.1c0-7.8-6.3-14.1-14.1-14.1H43.1c-7.8,0-14.1,6.3-14.1,14.1
			v34.1C29,292.1,35.3,298.4,43.1,298.4z"/>
	</g>
	<polyline class="st2" points="131.2,38.3 112.4,38.3 112.4,57.6 	"/>
	<polyline class="st2" points="131.2,107.8 112.4,107.8 112.4,127 	"/>
	<polyline class="st2" points="60.2,107.8 41.4,107.8 41.4,127 	"/>
	<polyline class="st2" points="131.2,177.2 112.4,177.2 112.4,196.5 	"/>
	<polyline class="st2" points="60.2,177.2 41.4,177.2 41.4,196.5 	"/>
	<polyline class="st2" points="131.2,246.7 112.4,246.7 112.4,265.9 	"/>
	<polyline class="st2" points="60.2,246.7 41.4,246.7 41.4,265.9 	"/>
	<g class="st3">
		<path class="st4" d="M76.4,702.1c-17.6,0-31.9-14.3-31.9-31.9v-69.1l178-90.2h5.7v159.3c0,17.6-14.3,31.9-31.9,31.9H76.4z"/>
		<path class="st5" d="M224.7,514.4v155.8c0,15.7-12.7,28.4-28.4,28.4H76.4c-15.7,0-28.4-12.7-28.4-28.4v-66.9l175.2-88.9
			L224.7,514.4 M231.7,507.4h-7h-1.3h-1.7l-1.5,0.8L44.9,597.1l-3.8,1.9v4.3v66.9c0,19.5,15.9,35.4,35.4,35.4h119.9
			c19.5,0,35.4-15.9,35.4-35.4V514.4L231.7,507.4L231.7,507.4L231.7,507.4z"/>
	</g>
	<path class="st6" d="M125,442.3v5.1c0,15.7,12.7,28.4,28.4,28.4h119.9c15.7,0,28.4-12.7,28.4-28.4v-5.1H125z"/>
	<path class="st7" d="M111.6,458v0.5c25.9,12.9,69.6,7.4,110.7-16.3c33.5-19.4,57.4-46.3,66-71.2v-1.9H287L111.6,458z"/>
	<path class="st1" d="M84.5,34c-0.2,0-0.4,0-0.7,0v0.1c0,24.9-20.1,45-45,45c-1.2,0-2.4-0.1-3.5-0.2c-0.5,2.7-1.5,5.3-2.9,7.5
		c2.6,3,6.4,5,10.7,5h34.1c7.8,0,14.1-6.3,14.1-14.1V43.1c0-3.6-1.4-6.9-3.6-9.4C86.7,33.8,85.6,34,84.5,34z"/>
</g>
<g>
	<g>
		<path d="M359.2,160c0,42.1-25.3,78.3-74.4,78.3c-47.5,0-72.3-34.5-72.3-77.8c0-44,27.4-77.8,74.4-77.8
			C331.2,82.7,359.2,113.7,359.2,160z M246.3,159.8c0,29.5,13,51.9,39.8,51.9c29.1,0,39.4-24.4,39.4-51.3
			c0-28.6-11.7-51.1-39.9-51.1C258.2,109.3,246.3,130.4,246.3,159.8z M327.4,212.9l43,29.5l-18.9,21.7l-53.3-36.9L327.4,212.9z"/>
		<path d="M368.8,76h31.4v28h-31.4V76z M368.8,122.6h31.4v113.5h-31.4V122.6z"/>
		<path d="M413.4,151.2c0-9.7,0-20.2-0.2-28.6h30.4c0.6,2.9,1,10.8,1.2,14.5c3.9-7.1,13-17.1,32.9-17.1c22.8,0,37.6,15.4,37.6,43.9
			v72.2h-31.4v-68.7c0-12.8-4.3-22-18.1-22c-13.4,0-21,7.4-21,27.5v63.3h-31.4V151.2z"/>
		<path d="M632.1,76v128.9c0,10.3,0,20.8,0.2,31.2h-30.2c-0.6-3.4-1.2-9.3-1.4-11.9c-5.5,8.9-15.3,14.5-32.2,14.5
			c-28.7,0-47-23.1-47-58.5c0-34.9,19.4-60.3,51.6-60.3c16.3,0,25.1,5.8,27.6,10.9V76H632.1z M553.7,179.4c0,22.1,8.6,34.1,24,34.1
			c21.6,0,24.1-18,24.1-34.3c0-19.4-2.7-34.1-23.3-34.1C562,145.1,553.7,158,553.7,179.4z"/>
		<path d="M669.6,186c0,14.2,7.1,28.1,22.8,28.1c13.1,0,16.8-5.3,19.8-12.1h31.5c-4,13.9-16.4,36.7-52.1,36.7
			c-37.4,0-53.6-28-53.6-57.8c0-35.6,18.3-61.1,54.8-61.1c39,0,52.3,28.2,52.3,56.6c0,3.8,0,6.3-0.4,9.6H669.6z M713.4,166.7
			c-0.2-13.2-5.5-24.3-20.8-24.3c-15.1,0-21.1,10.4-22.4,24.3H713.4z"/>
		<path d="M750.9,153.4c0-11.3,0-21.3-0.2-30.8h30.8c0.4,2.5,0.8,13.8,0.8,19.9c5-13,17.1-22.5,36.4-22.6v30
			c-22.8-0.6-36.4,5.5-36.4,36.7v49.5h-31.4V153.4z"/>
	</g>
</g>
</svg>
