<?xml version="1.0" encoding="utf-8"?>
<!-- Generator: Adobe Illustrator 22.1.0, SVG Export Plug-In . SVG Version: 6.00 Build 0)  -->
<svg version="1.1" id="Layer_1" xmlns="http://www.w3.org/2000/svg" xmlns:xlink="http://www.w3.org/1999/xlink" x="0px" y="0px"
	 viewBox="0 0 1400 980" style="enable-background:new 0 0 1400 980;" xml:space="preserve">
<style type="text/css">
	.st0{fill:#66423B;stroke:#51352B;stroke-width:10;stroke-miterlimit:10;}
	.st1{fill:#845D59;stroke:#492E2E;stroke-width:5;stroke-miterlimit:10;}
	.st2{fill:none;stroke:#EFEFEF;stroke-width:5;stroke-linecap:round;stroke-linejoin:round;stroke-miterlimit:10;}
</style>
<g id="Favorite">
</g>
<g>
	<g>
		<path class="st0" d="M711.3,557.4h-78.1c-8.7,0-15.7-6.5-15.7-14.4V383.8c0-7.9,7.1-14.4,15.7-14.4h78.1c8.7,0,15.7,6.5,15.7,14.4
			V543C727,551,719.9,557.4,711.3,557.4z"/>
		<g>
			<g>
				<path class="st1" d="M659.5,417.8H636c-5.4,0-9.7-4-9.7-8.9v-21.5c0-4.9,4.3-8.9,9.7-8.9h23.5c5.4,0,9.7,4,9.7,8.9v21.5
					C669.3,413.8,664.9,417.8,659.5,417.8z"/>
				<path class="st1" d="M708.4,417.8h-23.5c-5.4,0-9.7-4-9.7-8.9v-21.5c0-4.9,4.3-8.9,9.7-8.9h23.5c5.4,0,9.7,4,9.7,8.9v21.5
					C718.2,413.8,713.7,417.8,708.4,417.8z"/>
			</g>
			<g>
				<path class="st1" d="M659.5,461.3H636c-5.4,0-9.7-4-9.7-8.9v-21.5c0-4.9,4.3-8.9,9.7-8.9h23.5c5.4,0,9.7,4,9.7,8.9v21.5
					C669.3,457.3,664.9,461.3,659.5,461.3z"/>
				<path class="st1" d="M708.4,461.3h-23.5c-5.4,0-9.7-4-9.7-8.9v-21.5c0-4.9,4.3-8.9,9.7-8.9h23.5c5.4,0,9.7,4,9.7,8.9v21.5
					C718.2,457.3,713.7,461.3,708.4,461.3z"/>
			</g>
			<g>
				<path class="st1" d="M659.5,504.8H636c-5.4,0-9.7-4-9.7-8.9v-21.5c0-4.9,4.3-8.9,9.7-8.9h23.5c5.4,0,9.7,4,9.7,8.9v21.5
					C669.3,500.8,664.9,504.8,659.5,504.8z"/>
				<path class="st1" d="M708.4,504.8h-23.5c-5.4,0-9.7-4-9.7-8.9v-21.5c0-4.9,4.3-8.9,9.7-8.9h23.5c5.4,0,9.7,4,9.7,8.9v21.5
					C718.2,500.8,713.7,504.8,708.4,504.8z"/>
			</g>
			<g>
				<path class="st1" d="M659.5,548.3H636c-5.4,0-9.7-4-9.7-8.9v-21.5c0-4.9,4.3-8.9,9.7-8.9h23.5c5.4,0,9.7,4,9.7,8.9v21.5
					C669.3,544.3,664.9,548.3,659.5,548.3z"/>
				<path class="st1" d="M708.4,548.3h-23.5c-5.4,0-9.7-4-9.7-8.9v-21.5c0-4.9,4.3-8.9,9.7-8.9h23.5c5.4,0,9.7,4,9.7,8.9v21.5
					C718.2,544.3,713.7,548.3,708.4,548.3z"/>
			</g>
		</g>
		<polyline class="st2" points="647.8,384.4 660.7,384.4 660.7,396.5 		"/>
		<polyline class="st2" points="696.7,384.4 709.5,384.4 709.5,396.5 		"/>
		<polyline class="st2" points="647.8,428.2 660.7,428.2 660.7,440.3 		"/>
		<polyline class="st2" points="696.7,428.2 709.5,428.2 709.5,440.3 		"/>
		<polyline class="st2" points="647.8,471.9 660.7,471.9 660.7,484.1 		"/>
		<polyline class="st2" points="696.7,471.9 709.5,471.9 709.5,484.1 		"/>
		<polyline class="st2" points="647.8,515.7 660.7,515.7 660.7,527.8 		"/>
		<polyline class="st2" points="696.7,515.7 709.5,515.7 709.5,527.8 		"/>
	</g>
</g>
</svg>
